<?xml version="1.0" encoding="UTF-8"?>
<svg width="249px" height="249px" viewBox="0 0 249 249" xmlns="http://www.w3.org/2000/svg" xmlns:xlink="http://www.w3.org/1999/xlink" version="1.1">
 <!-- Generated by Pixelmator Pro 2.2 -->
 <path id="a" d="M158.008 5.929 C159.952 8.342 160.943 11.599 162.925 18.11 L206.234 160.38 C189.966 151.939 172.506 146.027 154.456 142.85 L126.258 47.56 C125.797 45.999 124.361 44.928 122.733 44.93 121.105 44.932 119.673 46.007 119.216 47.57 L91.359 142.802 C73.228 145.964 55.687 151.885 39.349 160.359 L82.869 18.078 C84.859 11.576 85.852 8.326 87.796 5.918 89.512 3.791 91.744 2.139 94.28 1.12 97.152 -0.034 100.551 -0.034 107.35 -0.034 L138.435 -0.034 C145.242 -0.034 148.646 -0.034 151.521 1.123 154.059 2.144 156.292 3.799 158.008 5.929 Z" fill="#000014" fill-opacity="1" stroke="none"/>
 <path id="flame" d="M163.19 178.151 C156.051 184.256 141.8 188.419 125.386 188.419 105.239 188.419 88.353 182.147 83.873 173.712 82.271 178.547 81.912 184.079 81.912 187.614 81.912 187.614 80.856 204.969 92.927 217.04 92.927 210.772 98.008 205.691 104.276 205.691 115.019 205.691 115.007 215.064 114.997 222.668 L114.997 223.347 C114.997 234.889 122.051 244.783 132.083 248.953 130.539 245.775 129.739 242.286 129.744 238.753 129.744 227.745 136.207 223.646 143.718 218.883 149.694 215.093 156.334 210.882 160.91 202.434 163.374 197.883 164.661 192.789 164.653 187.614 164.653 184.315 164.14 181.135 163.19 178.151 Z" fill="#ff5d01" fill-opacity="1" stroke="none"/>
</svg>
