<?xml version="1.0" encoding="UTF-8"?>
<svg width="719px" height="240px" viewBox="0 0 719 240" xmlns="http://www.w3.org/2000/svg" xmlns:xlink="http://www.w3.org/1999/xlink" version="1.1">
 <!-- Generated by Pixelmator Pro 2.2 -->
 <g id="group">
  <path id="Path" d="M712.6 194.9 C709.2 194.9 706.5 192.2 706.5 188.8 706.5 185.5 709.2 182.7 712.6 182.7 715.9 182.7 718.7 185.4 718.7 188.8 718.7 192.1 715.9 194.9 712.6 194.9 M712.6 183.9 C709.9 183.9 707.7 186.1 707.7 188.8 707.7 191.5 709.9 193.7 712.6 193.7 715.3 193.7 717.5 191.5 717.5 188.8 717.5 186.1 715.3 183.9 712.6 183.9 M715.7 192 L714.3 192 713.1 189.7 711.5 189.7 711.5 192 710.2 192 710.2 185.3 713.4 185.3 C714.8 185.3 715.7 186.2 715.7 187.5 715.7 188.5 715.1 189.2 714.3 189.5 Z M713.3 188.5 C713.8 188.5 714.3 188.2 714.3 187.5 714.3 186.7 713.9 186.5 713.3 186.5 L711.3 186.5 711.3 188.5 Z" fill="#404041" fill-opacity="1" stroke="none"/>
  <path id="Path-1" d="M77.1 182.1 L92.7 182.1 92.7 224.6 119.8 224.6 119.8 238.2 77.1 238.2 Z" fill="#404041" fill-opacity="1" stroke="none"/>
  <path id="Path-2" d="M135.9 210.3 L135.9 210.1 C135.9 194 148.9 180.9 166.2 180.9 183.5 180.9 196.3 193.8 196.3 209.9 L196.3 210.1 C196.3 226.2 183.3 239.3 166 239.3 148.7 239.3 135.9 226.4 135.9 210.3 M180.5 210.3 L180.5 210.1 C180.5 202 174.7 195 166.1 195 157.6 195 151.9 201.9 151.9 210 L151.9 210.2 C151.9 218.3 157.7 225.3 166.2 225.3 174.8 225.3 180.5 218.4 180.5 210.3" fill="#404041" fill-opacity="1" stroke="none"/>
  <path id="Path-3" d="M215.4 213.6 L215.4 182.1 231.2 182.1 231.2 213.3 C231.2 221.4 235.3 225.2 241.5 225.2 247.7 225.2 251.8 221.5 251.8 213.7 L251.8 182.1 267.6 182.1 267.6 213.2 C267.6 231.3 257.3 239.2 241.3 239.2 225.4 239.2 215.4 231.2 215.4 213.6" fill="#404041" fill-opacity="1" stroke="none"/>
  <path id="Path-4" d="M291.4 182.1 L313 182.1 C333 182.1 344.7 193.6 344.7 209.8 L344.7 210 C344.7 226.2 332.9 238.2 312.7 238.2 L291.4 238.2 Z M313.3 224.4 C322.6 224.4 328.8 219.3 328.8 210.2 L328.8 210 C328.8 201 322.6 195.8 313.3 195.8 L307 195.8 307 224.3 313.3 224.3 Z" fill="#404041" fill-opacity="1" stroke="none"/>
  <path id="Path-5" d="M367.3 182.1 L412.2 182.1 412.2 195.7 382.8 195.7 382.8 205.3 409.4 205.3 409.4 218.2 382.8 218.2 382.8 238.2 367.3 238.2 Z" fill="#404041" fill-opacity="1" stroke="none"/>
  <path id="Path-6" d="M433.8 182.1 L449.3 182.1 449.3 224.6 476.5 224.6 476.5 238.2 433.8 238.2 Z" fill="#404041" fill-opacity="1" stroke="none"/>
  <path id="Path-7" d="M517.1 181.7 L532.1 181.7 556 238.2 539.3 238.2 535.2 228.2 513.6 228.2 509.6 238.2 493.3 238.2 Z M530.8 216.1 L524.6 200.2 518.3 216.1 Z" fill="#404041" fill-opacity="1" stroke="none"/>
  <path id="Path-8" d="M576 182.1 L602.5 182.1 C611.1 182.1 617 184.3 620.8 188.2 624.1 191.4 625.8 195.7 625.8 201.3 L625.8 201.5 C625.8 210.1 621.2 215.8 614.3 218.7 L627.7 238.3 609.7 238.3 598.4 221.3 591.6 221.3 591.6 238.3 576 238.3 Z M601.8 209 C607.1 209 610.1 206.4 610.1 202.4 L610.1 202.2 C610.1 197.8 606.9 195.6 601.7 195.6 L591.5 195.6 591.5 209 Z" fill="#404041" fill-opacity="1" stroke="none"/>
  <path id="Path-9" d="M648.2 182.1 L693.3 182.1 693.3 195.3 663.6 195.3 663.6 203.8 690.5 203.8 690.5 216.1 663.6 216.1 663.6 225 693.7 225 693.7 238.2 648.2 238.2 Z" fill="#404041" fill-opacity="1" stroke="none"/>
  <path id="Path-10" d="M43.1 216.9 C40.9 221.8 36.3 225.3 30.3 225.3 21.8 225.3 16 218.2 16 210.2 L16 210 C16 201.9 21.7 195 30.2 195 36.6 195 41.5 198.9 43.5 204.3 L59.9 204.3 C57.3 190.9 45.5 181 30.3 181 13 181 0 194.1 0 210.2 L0 210.4 C0 226.5 12.8 239.4 30.1 239.4 44.9 239.4 56.5 229.8 59.5 217 Z" fill="#404041" fill-opacity="1" stroke="none"/>
  <g id="group-1">
   <path id="Path-11" d="M674.9 92.6 L632 68 624.6 64.8 449.1 66 449.1 155.1 674.9 155.1 Z" fill="#ffffff" fill-opacity="1" stroke="none"/>
   <path id="Path-12" d="M596.8 146.9 C598.9 139.7 598.1 133.1 594.6 128.2 591.4 123.7 586 121.1 579.5 120.8 L456.4 119.2 C455.6 119.2 454.9 118.8 454.5 118.2 454.1 117.6 454 116.8 454.2 116 454.6 114.8 455.8 113.9 457.1 113.8 L581.3 112.2 C596 111.5 612 99.6 617.6 85 L624.7 66.5 C625 65.7 625.1 64.9 624.9 64.1 616.9 27.9 584.6 0.9 546 0.9 510.4 0.9 480.2 23.9 469.4 55.8 462.4 50.6 453.5 47.8 443.9 48.7 426.8 50.4 413.1 64.1 411.4 81.2 411 85.6 411.3 89.9 412.3 93.9 384.4 94.7 362.1 117.5 362.1 145.6 362.1 148.1 362.3 150.6 362.6 153.1 362.8 154.3 363.8 155.2 365 155.2 L592.2 155.2 C593.5 155.2 594.7 154.3 595.1 153 Z" fill="#f38020" fill-opacity="1" stroke="none"/>
   <path id="Path-13" d="M636 67.8 C634.9 67.8 633.7 67.8 632.6 67.9 631.8 67.9 631.1 68.5 630.8 69.3 L626 86 C623.9 93.2 624.7 99.8 628.2 104.7 631.4 109.2 636.8 111.8 643.3 112.1 L669.5 113.7 C670.3 113.7 671 114.1 671.4 114.7 671.8 115.3 671.9 116.2 671.7 116.9 671.3 118.1 670.1 119 668.8 119.1 L641.5 120.7 C626.7 121.4 610.8 133.3 605.2 147.9 L603.2 153 C602.8 154 603.5 155 604.6 155 L698.4 155 C699.5 155 700.5 154.3 700.8 153.2 702.4 147.4 703.3 141.3 703.3 135 703.3 98 673.1 67.8 636 67.8" fill="#faae40" fill-opacity="1" stroke="none"/>
  </g>
 </g>
</svg>
