<?xml version="1.0" encoding="UTF-8"?>
<svg width="380px" height="380px" viewBox="0 0 380 380" xmlns="http://www.w3.org/2000/svg" xmlns:xlink="http://www.w3.org/1999/xlink" version="1.1">
 <!-- Generated by Pixelmator Pro 2.2 -->
 <g id="group">
  <path id="Path" d="M154.38 121.56 L149.74 126.574 C149.1 126.04 148.14 126.948 148.78 127.586 156.234 135.012 166.918 141.012 171.924 150.464 172.1 150.764 172.406 150.965 172.751 151.007 173.096 151.049 173.441 150.927 173.684 150.678 176.072 148.052 178.53 145.492 180.884 142.838 181.253 142.469 181.319 141.895 181.044 141.452 174.936 131.723 165.789 124.281 155.02 120.28 154.384 120.056 153.9 121.08 154.38 121.56 Z" fill="#f38020" fill-opacity="1" stroke="none"/>
  <path id="Path-1" d="M112.89 262.188 C113.79 262.734 113.702 263.838 113.956 264.908 114.112 266.707 114.907 268.39 116.196 269.654 118.558 271.286 122.116 269.868 124.196 268.16 124.816 268.16 123.9 269.498 136.088 248.43 136.216 248.208 136.237 247.939 136.143 247.701 136.05 247.462 135.853 247.278 135.608 247.202 129.192 244.452 124.528 239.522 124.25 232.378 124.386 228.301 125.086 224.263 126.33 220.378 129.449 208.05 134.163 196.182 140.354 185.074 140.554 184.7 140.406 184.074 139.928 184.008 133.5 182.864 127.859 179.046 124.41 173.502 124.278 173.29 124.046 173.162 123.796 173.162 123.546 173.162 123.314 173.29 123.182 173.502 84.034 226.408 97.328 208.126 75.782 232.964 70.084 239.53 63.038 248.856 64.102 258.136 64.744 263.736 69.65 265.502 74.714 264.854 85.442 263.484 92.778 254.104 95.674 254.668 98.24 255.17 93.274 262.082 92.474 263.254 87.04 271.206 74.95 283.59 77.808 290.558 79.142 293.812 82.976 293.854 85.808 292.852 98.162 288.48 100.308 273.652 108.472 265.174 109.3 264.304 111.6 261.4 112.89 262.188 Z" fill="#ff5d01" fill-opacity="1" stroke="none"/>
  <path id="Path-2" d="M183.658 141.346 C190.328 147.781 198.216 152.821 206.858 156.17 207.98 156.592 208.776 154.678 207.71 154.198 199.02 150.558 191.095 145.311 184.352 138.732 182.326 136.706 181.898 135.746 183.126 133.026 184.618 129.72 188.41 126.364 190.912 123.746 196.273 118.15 202.248 113.178 208.724 108.922 215.222 104.642 224.882 98.47 232.614 103.162 232.668 103.322 232.722 103.536 232.774 103.696 234.642 107.962 236.072 112.296 240.4 114.574 244.017 116.706 248.561 116.453 251.92 113.934 252.612 113.398 251.656 112.178 250.96 112.708 246.999 115.269 241.767 114.592 238.588 111.108 237.494 109.835 236.612 108.394 235.974 106.842 235.394 105.56 235.072 103.37 234.002 102.362 228.534 97.216 219.484 100.208 213.896 103.322 204.342 108.862 195.616 115.72 187.976 123.694 185.3 126.564 181.306 130.25 179.764 133.932 178.426 137.13 181.634 139.424 183.658 141.346 Z" fill="#f38020" fill-opacity="1" stroke="none"/>
  <path id="Path-3" d="M58.548 286.346 C67.158 268.146 62.548 261.932 41.11 284.532 36.256 289.652 31.224 294.886 32.844 299.038 33.95 301.87 37.75 303.384 40.95 303.41 49.116 303.48 55.05 293.74 58.548 286.346 Z" fill="#ff5d01" fill-opacity="1" stroke="none"/>
  <path id="Path-4" d="M27.244 307.57 C23.531 308.853 20.605 311.759 19.298 315.464 18.616 316.904 18.636 318.577 19.352 320 20.528 321.656 23.24 321.444 25.218 321.066 31.666 319.836 36.498 311.64 34.55 308.642 33.27 306.664 29.482 306.922 27.244 307.57 Z" fill="#ff5d01" fill-opacity="1" stroke="none"/>
  <path id="Path-5" d="M69.534 294.4 C60.262 294.44 51.534 316.418 55.188 319.252 58.04 321.152 66.356 313.452 68.894 311.038 72.752 307.378 77.582 302.838 76.254 298.774 75.088 296.105 72.446 294.386 69.534 294.4 Z" fill="#ff5d01" fill-opacity="1" stroke="none"/>
  <path id="Path-6" d="M46.442 326.822 C41.842 328.178 40.416 335.28 42.176 336.688 44.27 338.364 53.2 331.522 52.202 328.368 51.698 326.776 48.628 326.178 46.442 326.822 Z" fill="#ff5d01" fill-opacity="1" stroke="none"/>
  <path id="Path-7" d="M348.122 353.326 C340.856 352.926 336.178 346.188 326.044 346.926 322.736 347.166 319.588 348.382 316.232 347.406 311.906 346.146 308.392 342.446 303.7 342.178 299.008 341.91 296.874 345.752 293.194 347.832 289.14 350.124 286.274 347.002 282.688 345.432 276.926 342.908 270.072 342.932 265.624 347.192 262.022 350.658 260.486 355.75 261.57 360.63 262.98 364.611 266.423 367.524 270.582 368.256 275.263 368.691 279.972 368.745 284.662 368.416 304.662 367.934 301.074 368.086 331.062 366.71 340.194 366.292 359.95 368.868 361.138 359.138 362.02 351.884 352.55 353.572 348.122 353.326 Z M356.868 361.752 C352.15 365.076 344.23 364.352 338.79 364.206 325.104 363.826 283.69 366.55 270.59 365.806 266.646 365.582 261.158 358.45 264.512 352.046 266.905 347.432 272.045 344.938 277.15 345.914 281.042 346.514 283.818 348.79 287.282 350.34 293.306 353.034 296.528 346.94 300.242 345.114 306.226 342.164 311.726 349.776 318.694 350.126 321.162 349.992 323.619 349.708 326.052 349.274 335.262 348.618 339.834 354.534 346.21 355.566 350.29 356.226 356.67 354.872 358.37 356.792 359.816 358.434 358.248 360.782 356.868 361.752 Z" fill="#f38020" fill-opacity="1" stroke="none"/>
  <path id="Path-8" d="M45.856 72.232 C48.686 73.232 52.63 72.588 55.562 72.658 60.842 72.786 115.824 74.244 138.062 74.578 144.888 74.68 155.288 72.232 156.3 63.538 156.655 60.298 155.547 57.069 153.279 54.729 151.01 52.388 147.817 51.181 144.568 51.434 142.854 51.728 141.186 52.248 139.608 52.98 135.874 54.15 134.326 52.822 131.662 50.26 123.086 42.245 110.544 40.144 99.824 44.928 91.024 48.822 89.142 55.328 84.892 56.928 81.492 58.212 78.808 56.094 75.666 55.274 71.866 54.286 69.588 55.702 66.282 57.354 61.812 59.59 58.86 56.214 51.51 59.222 47.632 60.8 37.386 69.222 45.856 72.232 Z M47.616 65.298 C50.859 62.2 55.326 60.731 59.774 61.298 63.077 61.706 66.421 60.992 69.268 59.27 73.744 57.07 76.144 59.498 80.414 60.444 87.926 62.108 91.316 55.15 95.346 51.752 104.437 44.493 117.228 44.102 126.746 50.792 129.52 52.87 131.654 56.332 135.172 57.244 138.852 58.198 141.198 55.116 144.664 54.844 147.413 54.61 150.082 55.841 151.69 58.083 153.298 60.325 153.607 63.247 152.504 65.776 150.368 70.896 139.864 71.106 137.998 71.11 113.198 71.156 70.398 69.666 53.798 69.564 51.984 69.552 49.14 70.07 47.612 68.924 46.158 67.83 46.554 66.476 47.616 65.298 Z" fill="#f38020" fill-opacity="1" stroke="none"/>
  <path id="Path-9" d="M245.358 75 C247.617 74.268 249.593 72.852 251.012 70.948 252.866 68.378 252.398 66.574 251.972 64.122 254.798 65.722 257.944 66.896 261.09 65.562 264.61 64.07 265.418 60.6 264.29 57.188 263.39 54.466 260.558 48.71 257.144 48.496 255.956 48.495 254.805 48.91 253.892 49.67 247.337 55.964 240.173 61.591 232.506 66.47 232.023 66.752 231.857 67.369 232.132 67.856 235.248 72.344 239.44 76.876 245.358 75 Z M256.878 61.828 C255.034 61.681 253.211 61.342 251.438 60.816 251.102 60.712 250.893 60.377 250.947 60.03 251.001 59.682 251.3 59.426 251.652 59.428 253.544 59.609 255.417 59.949 257.252 60.442 258.16 60.646 257.73 61.95 256.878 61.832 Z M259.97 56.496 C260.339 56.61 260.552 56.995 260.452 57.368 260.352 57.742 259.975 57.969 259.598 57.882 257.601 57.68 255.644 57.195 253.784 56.442 253.543 56.285 253.43 55.992 253.503 55.714 253.575 55.436 253.817 55.235 254.104 55.216 256.109 55.373 258.083 55.805 259.97 56.5 Z M241.57 64.762 C243.576 64.873 245.554 65.286 247.436 65.988 248.236 66.252 248.128 67.556 247.222 67.482 245.142 67.373 243.092 66.941 241.144 66.202 240.452 65.832 240.878 64.766 241.572 64.766 Z M241.09 69.188 C242.492 69.341 243.882 69.59 245.25 69.934 246.264 70.148 245.832 71.662 244.824 71.48 243.419 71.373 242.036 71.068 240.716 70.574 240.016 70.222 240.4 69.246 241.092 69.2 Z" fill="#f38020" fill-opacity="1" stroke="none"/>
  <path id="Path-10" d="M213.042 354.34 C206.07 362.672 197.852 369.656 190.43 377.484 189.63 378.334 190.8 379.4 191.656 378.71 199.982 371.814 207.61 364.116 214.428 355.726 215.226 354.766 213.844 353.382 213.042 354.34 Z" fill="#f38020" fill-opacity="1" stroke="none"/>
  <path id="Path-11" d="M216.508 326.076 C204.76 338.064 192.558 349.742 181.63 362.446 181.342 362.776 181.358 363.272 181.668 363.582 181.978 363.892 182.474 363.908 182.804 363.62 195.23 352.334 206.682 339.918 218.004 327.568 218.92 326.566 217.458 325.106 216.508 326.076 Z" fill="#f38020" fill-opacity="1" stroke="none"/>
  <path id="Path-12" d="M235.706 278.614 C216.618 296.178 198 314.36 178.6 331.568 177.75 332.32 178.974 333.49 179.826 332.796 199.884 316.275 218.989 298.63 237.048 279.946 237.856 279.11 236.566 277.822 235.706 278.614 Z" fill="#f38020" fill-opacity="1" stroke="none"/>
  <path id="Path-13" d="M174.324 369 C170.622 371.856 167.163 375.013 163.98 378.438 163.4 379.138 164.194 380.466 165.046 379.824 168.835 376.951 172.434 373.833 175.818 370.492 176.8 369.554 175.326 368.138 174.324 369 Z" fill="#f38020" fill-opacity="1" stroke="none"/>
  <path id="Path-14" d="M201.896 276.64 C182.832 292.349 164.621 309.065 147.34 326.716 147.046 327.011 147.046 327.489 147.341 327.783 147.636 328.077 148.114 328.077 148.408 327.782 166.912 311.57 184.672 294.206 202.962 277.706 203.692 277.048 202.636 276.046 201.896 276.64 Z" fill="#f38020" fill-opacity="1" stroke="none"/>
  <path id="Path-15" d="M138.754 334.4 C128.578 343.47 116.652 350.858 107.238 360.746 106.438 361.592 107.608 362.662 108.464 361.972 119.064 353.412 129.912 344.854 140.034 335.734 140.932 334.918 139.658 333.6 138.754 334.4 Z" fill="#f38020" fill-opacity="1" stroke="none"/>
  <path id="Path-16" d="M170 338.182 C157.374 349.88 143.576 360.552 131.442 372.844 130.642 373.644 131.818 374.768 132.67 374.072 145.984 363.182 158.682 351.238 171.28 339.514 172.142 338.718 170.864 337.386 170 338.182 Z" fill="#f38020" fill-opacity="1" stroke="none"/>
  <path id="Path-17" d="M256.718 102.682 C256.563 103.019 256.659 103.418 256.951 103.647 257.243 103.876 257.654 103.874 257.944 103.642 260.182 101.501 262.284 99.221 264.236 96.816 265.892 95.112 267.65 93.402 269.41 91.804 270.476 104.442 269.996 118.734 277.516 129.506 265.484 139.648 260.354 141.906 254.85 145.718 256.26 142.16 257.349 138.484 258.104 134.732 258.264 133.88 256.98 133.506 256.77 134.36 254.528 142.16 251.638 149.759 248.132 157.078 244.802 164.746 241.472 173.822 235.866 180.168 235.657 180.391 235.663 180.739 235.879 180.955 236.095 181.171 236.443 181.177 236.666 180.968 242.928 175.184 246.278 165.568 249.624 157.93 254.17 147.564 253.298 149.162 253.784 148.918 258.85 147.158 263.484 143.416 267.81 140.278 272.01 137.23 276.096 133.95 280.022 130.52 280.43 130.131 280.518 129.514 280.236 129.026 271.88 117.922 273.036 103.108 270.796 90.096 270.714 89.816 270.502 89.594 270.227 89.499 269.952 89.403 269.647 89.447 269.41 89.616 266.945 91.463 264.594 93.458 262.37 95.59 260.115 97.633 258.206 100.028 256.718 102.682 Z" fill="#f38020" fill-opacity="1" stroke="none"/>
  <path id="Path-18" d="M298.2 131.106 C315.46 104.906 330.682 77.862 340 47.754 340.28 46.852 338.9 46.48 338.614 47.38 329.154 77.234 313.444 103.856 297.232 130.52 296.768 131.16 297.784 131.748 298.2 131.106 Z" fill="#f38020" fill-opacity="1" stroke="none"/>
  <path id="Path-19" d="M337.4 82.098 C328.228 102.872 316.488 121.898 305.35 141.558 305.165 141.909 305.29 142.344 305.632 142.544 305.975 142.744 306.415 142.639 306.63 142.306 319.071 123.496 329.845 103.635 338.83 82.95 339.264 81.988 337.828 81.136 337.4 82.098 Z" fill="#f38020" fill-opacity="1" stroke="none"/>
  <path id="Path-20" d="M213.522 218.138 C219.122 217.61 222.876 211.834 224.88 206.938 225.668 205.012 225.894 202.938 226.534 200.912 229.144 192.626 232.7 190.83 236.026 185.072 236.203 184.763 236.16 184.375 235.92 184.112 231.066 180.166 215.216 167.222 212.082 164.712 210.368 163.332 206.268 159.038 203.976 159.112 202.696 159.154 196.562 167.484 196.99 167.858 204.042 174.722 219.106 188.434 227.92 193.722 225.949 196.758 224.473 200.088 223.548 203.588 222.206 208.758 218.428 215.554 212.562 215.8 201.828 216.252 184.61 206.754 172.618 201.4 172.179 201.173 171.638 201.333 171.394 201.764 171.151 202.194 171.291 202.74 171.712 203 178.044 206.682 184.639 209.89 191.444 212.6 198.118 215.346 206.11 218.838 213.522 218.138 Z" fill="#f38020" fill-opacity="1" stroke="none"/>
  <path id="Path-21" d="M275.49 155.21 C267.662 166.334 257.506 175.308 249.144 185.928 248.558 186.674 249.52 187.688 250.212 186.994 260.084 177.56 269.03 167.203 276.928 156.064 277.532 155.168 276.084 154.364 275.49 155.21 Z" fill="#f38020" fill-opacity="1" stroke="none"/>
  <path id="Path-22" d="M276.502 177.076 C277.406 176.06 275.926 174.524 275.01 175.582 269.89 181.496 264.57 187.442 259.704 193.554 259.447 193.854 259.464 194.301 259.743 194.581 260.023 194.86 260.47 194.877 260.77 194.62 266.938 189.704 271.308 182.922 276.502 177.076 Z" fill="#f38020" fill-opacity="1" stroke="none"/>
  <path id="Path-23" d="M32.684 244.696 C54.4 215.112 87.724 161.666 137.902 111.162 138.121 110.943 138.207 110.623 138.127 110.323 138.046 110.024 137.812 109.79 137.513 109.709 137.213 109.629 136.893 109.715 136.674 109.934 116.173 130.575 96.991 152.485 79.24 175.534 62.24 197.458 45.358 219.944 30.55 243.42 29.644 244.856 31.738 245.986 32.684 244.696 Z" fill="#f38020" fill-opacity="1" stroke="none"/>
  <path id="Path-24" d="M117.316 159.69 C103.795 174.624 91.74 190.821 81.316 208.06 80.516 209.342 82.486 210.46 83.288 209.232 94.298 192.416 105.07 175.942 118.7 161.184 119.65 160.158 118.214 158.722 117.316 159.69 Z" fill="#f38020" fill-opacity="1" stroke="none"/>
  <path id="Path-25" d="M42.6 206.62 C59.674 183.22 74.568 158.404 92.088 135.32 92.572 134.682 91.506 133.882 91.022 134.466 72.51 156.778 57.564 181.982 40.68 205.446 39.8 206.684 41.748 207.8 42.6 206.62 Z" fill="#f38020" fill-opacity="1" stroke="none"/>
  <path id="Path-26" d="M257.09 69.832 C257.898 70.436 258.648 71.114 259.33 71.858 258.755 72.249 258.127 72.554 257.464 72.764 256.172 73.268 257.098 75.506 258.424 75.058 259.926 74.55 262.358 72.934 261.09 71.058 260.283 70.136 259.37 69.313 258.37 68.606 257.408 67.756 256.386 67.022 255.33 66.258 254.684 65.79 253.944 66.792 254.478 67.378 255.33 68.178 256.176 68.986 257.09 69.832 Z" fill="#000014" fill-opacity="1" stroke="none"/>
  <path id="Path-27" d="M248.984 86.256 C252.666 87.32 256.078 85.99 256.984 82.044 257.424 79.408 256.496 81.632 246.052 75.964 245.766 75.803 245.416 75.805 245.131 75.969 244.846 76.133 244.67 76.435 244.666 76.764 244.666 80.178 245.092 85.134 248.984 86.256 Z M255.438 81.564 C254.85 82.684 254.438 83.872 253.144 84.338 251.866 84.701 250.508 84.663 249.252 84.23 247.184 83.398 246.692 80.604 246.586 78.31 249.343 79.863 252.332 80.961 255.438 81.564 Z" fill="#000014" fill-opacity="1" stroke="none"/>
  <path id="Path-28" d="M273.2 88.764 C282.884 78.364 299.764 51.29 317.4 29.996 318.462 28.712 316.62 26.864 315.586 28.182 300.418 47.51 287.466 68.486 271.964 87.536 271.276 88.4 272.4 89.62 273.2 88.764 Z" fill="#000014" fill-opacity="1" stroke="none"/>
  <path id="Path-29" d="M348.87 15.276 C334.71 22.664 330.688 33.476 312.766 65.778 302.766 83.792 290.656 99.81 278.582 116.388 278.112 117.034 279.166 117.88 279.702 117.24 307.788 83.732 313.738 67.35 329.502 39.594 335.084 29.776 338.116 23.344 349.554 16.556 349.873 16.351 349.981 15.935 349.802 15.6 349.624 15.266 349.218 15.125 348.87 15.276 Z" fill="#000014" fill-opacity="1" stroke="none"/>
  <path id="Path-30" d="M318.418 22.8 C317.112 17.939 317.45 12.783 319.378 8.134 319.642 7.386 318.626 7.116 318.206 7.654 315.015 12.332 314.489 18.333 316.818 23.494 317.2 24.4 318.684 23.756 318.418 22.8 Z" fill="#000014" fill-opacity="1" stroke="none"/>
  <path id="Path-31" d="M327.164 15.49 C330.902 12.09 332.628 5.49 339.856 1.198 340.143 1.012 340.235 0.633 340.065 0.336 339.895 0.038 339.523 -0.075 339.216 0.078 336.212 1.704 333.61 3.982 331.6 6.744 329.442 9.229 327.598 11.969 326.108 14.904 325.84 15.494 326.746 15.872 327.164 15.49 Z" fill="#000014" fill-opacity="1" stroke="none"/>
  <path id="Path-32" d="M331.484 16.076 C330.802 17.202 332.506 18.162 333.244 17.09 336.999 11.686 341.573 6.901 346.8 2.904 347.336 2.482 346.642 1.628 346.106 1.998 340.356 5.972 335.114 10.084 331.484 16.076 Z" fill="#000014" fill-opacity="1" stroke="none"/>
  <path id="Path-33" d="M334.258 19.916 C333.77 20.658 334.796 21.316 335.43 20.822 339.14 17.968 339.738 15.722 348.122 10.69 348.454 10.496 348.568 10.071 348.379 9.736 348.19 9.402 347.768 9.28 347.43 9.464 342.222 11.772 337.689 15.369 334.258 19.916 Z" fill="#000014" fill-opacity="1" stroke="none"/>
  <path id="Path-34" d="M136.302 214.512 C132.84 220.778 129.848 228.434 130.276 235.684 130.288 236.041 130.553 236.339 130.907 236.391 131.26 236.444 131.601 236.236 131.716 235.898 133.876 228.968 131.48 229.434 137.634 215.312 138.026 214.414 136.774 213.656 136.302 214.512 Z" fill="#000014" fill-opacity="1" stroke="none"/>
  <path id="Path-35" d="M135.874 244.216 C137.062 235.038 137.474 226.146 141.048 217.498 141.358 216.748 140.048 216.172 139.714 216.912 135.832 225.395 134.022 234.68 134.434 244 134.486 244.8 135.764 245.07 135.874 244.216 Z" fill="#000014" fill-opacity="1" stroke="none"/>
  <path id="Path-36" d="M142.7 243.47 C143.98 235.514 143.5 227.792 146.648 220.166 147.02 219.258 145.466 218.614 145.048 219.526 141.554 226.991 140.224 235.287 141.208 243.47 141.315 243.791 141.615 244.008 141.954 244.008 142.293 244.008 142.593 243.791 142.7 243.47 Z" fill="#000014" fill-opacity="1" stroke="none"/>
  <path id="Path-37" d="M300.714 209.712 C289.936 204.98 276.876 205.076 265.356 205.766 252.878 206.516 239.27 207.826 227.706 212.86 226.852 213.23 227.44 214.62 228.346 214.352 245.848 209.176 275.978 205.518 294.26 210.192 298.472 211.27 303.124 212.956 306.046 216.378 308.446 219.198 307.8 223.096 307.112 226.458 304.796 237.812 299.358 248.684 293.94 258.828 287.717 270.874 280.206 282.21 271.54 292.638 264.182 293.278 258.902 288.426 253.41 284.372 256.448 279.466 258.61 274.042 261.942 269.228 264.505 265.965 266.721 262.444 268.554 258.722 268.934 257.818 267.706 257.07 267.222 257.922 262.254 266.64 253.89 274.294 251.382 284.322 251.237 284.575 251.258 284.891 251.436 285.122 251.887 285.78 252.387 286.404 252.93 286.988 248.77 294.454 245.53 302.44 241.624 310.026 241.435 310.408 241.46 310.861 241.689 311.221 241.917 311.581 242.318 311.795 242.744 311.786 242.699 312.005 242.737 312.233 242.85 312.426 244.65 315.956 249.782 316.212 252.876 314.452 253.323 314.593 253.81 314.444 254.102 314.078 259.422 307.859 264.288 301.265 268.662 294.348 269.674 294.41 270.69 294.392 271.7 294.294 272.039 294.454 272.441 294.391 272.714 294.134 282.046 285.442 288.882 273.554 294.952 262.456 300.988 251.422 307.098 239.48 309.618 227.1 310.268 223.9 310.986 219.99 309.564 216.914 308 213.534 304.124 211.21 300.714 209.712 Z M251.758 313.01 C250.539 313.424 249.23 313.498 247.972 313.224 246.008 312.8 244.958 311.424 243.812 311.038 247.812 303.784 250.638 295.892 254.264 288.48 257.788 291.508 262.061 293.534 266.636 294.346 263.16 298.7 252.478 311.57 251.758 313.01 Z" fill="#000014" fill-opacity="1" stroke="none"/>
  <path id="Path-38" d="M272.4 253.442 C272.823 253.176 273.021 252.664 272.886 252.183 272.75 251.702 272.314 251.367 271.814 251.362 262.716 252.236 256.214 256.192 233.524 259.842 225.154 261.188 215.888 262.642 207.446 260.962 206.328 260.738 205.846 262.456 206.966 262.722 219.202 265.628 237.842 262.094 250.696 259.308 257.736 257.782 265.862 256.642 272.4 253.442 Z" fill="#000014" fill-opacity="1" stroke="none"/>
  <path id="Path-39" d="M208.616 234.4 C207.96 234.342 207.976 234.764 205.096 238.772 177.296 277.462 140.624 304.756 102.278 339.83 100.525 341.668 98.421 343.137 96.092 344.15 93.68 345.161 90.893 344.565 89.106 342.656 105.263 311.515 122.095 280.746 139.6 250.35 138.214 249.976 137.086 251.412 136.346 252.642 118.844 281.812 103.126 312 87.132 342.02 86.496 343.22 86.48 343.904 87.88 344.688 94.042 348.14 96.55 347.088 100.252 343.994 111.728 334.407 123.105 324.701 134.382 314.876 155.702 296.306 176.782 277.236 194.75 255.308 194.914 255.108 209.696 236.854 209.414 235.204 209.378 234.778 209.042 234.439 208.616 234.4 Z" fill="#000014" fill-opacity="1" stroke="none"/>
  <path id="Path-40" d="M250 324.582 C248.8 332.674 248.086 338.382 244.4 345.754 243.4 347.74 243.082 348.12 242.374 347.728 240.374 346.622 240.3 341.274 240.24 339.354 240.096 334.608 242.5 329.754 240.56 325.17 239.928 323.674 238.644 322.396 238.108 320.85 236.408 315.94 239.542 315.814 241.36 313.01 241.908 312.166 240.718 311.3 240.028 311.944 238.206 313.642 235.828 314.4 235.334 317.116 234.868 319.678 236.228 321.816 237.414 323.996 241.256 331.048 235.414 336.462 239.388 347.728 241.102 352.578 243.924 351.568 245.894 347.514 249.504 340.484 251.525 332.747 251.814 324.85 251.814 323.836 250.148 323.568 250 324.582 Z" fill="#000014" fill-opacity="1" stroke="none"/>
  <path id="Path-41" d="M89.746 358.5 C87.76 362.232 85.477 365.799 82.92 369.166 82.436 369.748 79.56 373.55 78.6 373.538 76.254 373.512 78.162 367.938 78.494 366.978 79.626 363.712 82.48 360.904 82.812 357.378 82.849 356.123 82.724 354.868 82.44 353.644 81.876 350.076 84.308 349.168 86.706 347.458 87.454 346.926 87.022 345.53 86.066 345.858 82 347.258 80 347.778 80.094 352.632 80.156 355.884 80.634 357.914 79.026 360.844 76.453 364.522 75.041 368.888 74.974 373.376 75.144 377.856 78.118 376.84 80.574 374.496 85.223 370.196 88.912 364.963 91.4 359.14 91.762 358.228 90.258 357.634 89.746 358.5 Z" fill="#000014" fill-opacity="1" stroke="none"/>
  <path id="Path-42" d="M201 156.064 C184.718 173.403 169.37 191.596 155.021 210.565 154.662 211.182 154.603 211.927 154.86 212.592 158.112 217.818 154.992 224.162 154.38 229.71 154.268 230.724 155.72 230.78 156.034 229.924 157.834 224.98 160.886 216.806 156.834 212.22 171.554 193.448 186.326 174.996 201.844 156.918 201.997 156.767 202.057 156.547 202.003 156.339 201.949 156.131 201.788 155.969 201.581 155.912 201.374 155.855 201.153 155.913 201 156.064 Z" fill="#000014" fill-opacity="1" stroke="none"/>
  <path id="Path-43" d="M189.096 70.472 C192.015 72.244 195.391 73.115 198.802 72.978 198.58 73.909 198.599 74.882 198.856 75.804 200.328 81.89 218.8 74.898 217.788 78.898 216.776 82.898 220.3 88.512 226.906 85.51 232.964 82.758 233.728 83.4 234.64 83.27 234.528 88.538 235.898 92.114 233.306 100.336 233.18 100.912 233.526 101.486 234.095 101.642 234.663 101.798 235.255 101.482 235.44 100.922 237.052 95.032 237.343 88.859 236.292 82.844 237.503 82.409 238.535 81.584 239.226 80.498 239.964 79.32 238.368 78.41 237.466 79.11 235.428 80.696 231.778 82.358 230.534 78.738 230.235 77.627 230.429 76.442 231.066 75.484 231.826 74.212 233.04 74.152 234.32 73.724 234.619 73.625 234.821 73.346 234.821 73.031 234.821 72.716 234.619 72.437 234.32 72.338 233.935 72.253 233.54 72.217 233.146 72.232 231.332 70.418 229.462 68.178 229.626 66.632 229.938 63.698 238.954 60.014 245.412 54.206 247.49 52.338 249.252 50.9 250.692 49.726 243.182 43.772 238.278 40.742 220.934 48.66 204.048 56.37 183.324 66.116 189.096 70.472 Z M214.374 56.552 C218.469 54.562 222.671 52.8 226.96 51.274 230.509 49.643 234.464 49.104 238.32 49.726 238.962 49.872 238.854 50.996 238.16 50.9 230.068 49.772 222.334 55.314 214.908 57.832 214.57 57.921 214.218 57.748 214.083 57.425 213.948 57.102 214.073 56.729 214.374 56.552 Z" fill="#000014" fill-opacity="1" stroke="none"/>
  <path id="Path-44" d="M267.17 83.27 C262.924 91.414 251.994 91.528 244.666 88.87 243.762 88.542 243.224 89.94 244.026 90.416 246.281 91.693 248.797 92.441 251.384 92.604 251.516 95.282 251.783 97.952 252.184 100.604 252.161 102.673 252.676 104.713 253.678 106.524 253.879 106.835 254.275 106.957 254.617 106.812 254.958 106.668 255.147 106.299 255.064 105.938 254.524 103.419 254.115 100.873 253.838 98.312 253.682 96.444 253.624 94.524 253.304 92.712 259.758 92.712 266.478 89.992 269.196 84.5 271.492 79.86 269.438 74.778 267.224 70.58 266.064 68.38 264.984 65.888 263.704 63.54 263.32 64.093 262.83 64.564 262.264 64.928 262.796 65.994 263.264 67.016 263.756 67.968 266.126 72.49 269.816 78.2 267.17 83.27 Z" fill="#000014" fill-opacity="1" stroke="none"/>
  <path id="Path-45" d="M213.468 101.936 C215.694 97.024 219.976 87.838 214.802 83.484 214.548 83.238 214.186 83.138 213.842 83.218 209.736 84.441 205.822 86.236 202.216 88.55 202.011 88.661 201.928 88.913 202.026 89.125 202.125 89.336 202.371 89.435 202.588 89.35 208.89 87.85 214.412 82.996 214.854 87.964 214.886 91.096 214.269 94.2 213.042 97.082 209.67 96.708 209.698 96.008 207.708 94.896 207.494 94.779 207.229 94.818 207.056 94.99 206.884 95.163 206.845 95.428 206.962 95.642 208.209 97.497 210.397 98.488 212.614 98.202 212.242 99.216 211.938 100.234 211.654 101.188 211.352 102.2 212.986 103 213.468 101.936 Z" fill="#000014" fill-opacity="1" stroke="none"/>
  <path id="Path-46" d="M122.33 140.438 C125.947 142.533 129.796 144.198 133.8 145.4 134.6 145.668 133.97 144.616 134.972 148.12 134.224 149.979 133.931 151.991 134.118 153.986 131.17 155.432 128.382 157.183 125.8 159.21 123.458 160.922 123.154 161.712 123.72 164.756 124.66 169.816 128.77 174.326 132.892 177.128 136.452 179.548 141.426 182.48 145.958 182.196 150.758 181.894 152.09 174.462 153.264 170.356 154.089 170.523 154.928 170.613 155.77 170.622 156.183 170.608 156.526 170.297 156.579 169.887 156.632 169.477 156.38 169.089 155.984 168.97 147.878 165.93 134.278 160.756 135.718 150.252 139.666 159.19 152.246 165.014 161.53 167.156 150.616 180.644 128.93 209.774 127.73 227.156 127.737 227.508 128.003 227.801 128.353 227.841 128.703 227.882 129.029 227.657 129.116 227.316 132.836 211.932 140.844 198.462 149.86 185.666 159.596 171.283 170.84 157.98 183.4 145.984 184.314 145.14 182.936 143.76 182.068 144.652 177.354 149.484 173.108 153.824 168.682 158.89 166.666 154.858 164.744 151.546 157.802 145.344 154.144 149.41 152.438 152.534 150.07 154.678 149.786 154.943 149.352 154.962 149.046 154.723 148.74 154.483 148.655 154.057 148.844 153.718 150.91 150.202 153.341 146.913 156.096 143.906 151.914 140.385 147.048 137.77 141.804 136.226 153.009 122.187 167.076 110.697 183.07 102.522 182.324 106.842 186.024 109.738 189.63 111.694 190.112 111.956 190.75 111.428 190.376 110.948 189.31 109.402 187.392 108.92 186.11 107.588 184.723 106.032 184.081 103.949 184.35 101.882 191.732 98.192 198.246 94.252 200.402 95.802 203.478 98.014 198.96 107.694 198.11 110.522 197.788 111.588 199.45 112.338 199.922 111.268 202.2 106.112 206.084 97.484 201.416 92.656 201.103 92.36 200.662 92.24 200.242 92.336 186.859 96.992 174.353 103.86 163.242 112.654 156.985 117.425 151.101 122.667 145.642 128.334 137.11 128.12 128.364 133.08 122.178 138.572 121.872 138.799 121.704 139.168 121.735 139.547 121.766 139.927 121.991 140.264 122.33 140.438 Z M143.714 179.742 C137.648 178.618 127.648 172.372 125.956 164.704 125.728 162.686 126.678 160.715 128.4 159.638 128.2 159.798 132.938 170.102 148.666 177.022 147.844 178.965 145.795 180.09 143.714 179.742 Z M134.434 143.052 C131.221 141.993 128.1 140.674 125.102 139.106 130.648 134.572 136.674 132.546 143.394 130.572 139.981 134.408 136.978 138.591 134.434 143.052 Z" fill="#000014" fill-opacity="1" stroke="none"/>
 </g>
</svg>
